# xmcd
#
# Track frame offsets:
#	150
#	18700
#	35907
#	46825
#	67565
#	82797
#	99030
#	118902
#	141802
#	159110
#	168957
#	197030
#	213985
#	220272
#	230290
#	242185
#	252747
#	281082
#	293852
#	313620
#
# Disc length: 4355 seconds
#
# Revision: 2
# Processed by: cddbd v1.5.2PL0 Copyright (c) Steve Scherf et al.
# Submitted via: audiograbber 1.83.01
#
DISCID=19110114
DTITLE=Melanie (+ track dates) - All the Hits ... and More
DYEAR=1993
DGENRE=Pop
TTITLE0=What Have They Done to my Song, Ma (1970)
TTITLE1=Lay Down (Candles in the Rain) (1970)
TTITLE2=Brand New Key (1971)
TTITLE3=Ruby Tuesday (1970)
TTITLE4=Peace Will Come (according to Plan) (1970)
TTITLE5=Beautiful People (1969)
TTITLE6=Mr. Tambourine Man (1968)
TTITLE7=Ring the Living Bell (1972)
TTITLE8=Nickel Song (1971)
TTITLE9=Animal Crackers (1968)
TTITLE10=Leftover Wine (1970)
TTITLE11=Carolina in my Mind (1970)
TTITLE12=Somebody Loves Me (1972)
TTITLE13=Any Guy (1969)
TTITLE14=Johnny Boy (1969)
TTITLE15=I'm Back in Town (1968)
TTITLE16=Lay Lady Lay (1972)
TTITLE17=Someday I'll be a Farmer (1972)
TTITLE18=Together Alone (1972)
TTITLE19=Will You Love Me Tomorrow (1973)
EXTD=Track dates supplied.
EXTT0=
EXTT1=
EXTT2=
EXTT3=
EXTT4=
EXTT5=
EXTT6=
EXTT7=
EXTT8=
EXTT9=
EXTT10=
EXTT11=
EXTT12=
EXTT13=
EXTT14=
EXTT15=
EXTT16=
EXTT17=
EXTT18=
EXTT19=
PLAYORDER=
